<?xml version="1.0" encoding="UTF-8" standalone="no"?>
<!DOCTYPE svg PUBLIC "-//W3C//DTD SVG 1.1//EN"
 "http://www.w3.org/Graphics/SVG/1.1/DTD/svg11.dtd">
<!-- Generated by graphviz version 2.38.0 (20140413.2041)
 -->
<!-- Title: %3 Pages: 1 -->
<svg width="157pt" height="188pt"
 viewBox="0.00 0.00 157.44 188.00" xmlns="http://www.w3.org/2000/svg" xmlns:xlink="http://www.w3.org/1999/xlink">
<g id="graph0" class="graph" transform="scale(1 1) rotate(0) translate(4 184)">
<title>%3</title>
<polygon fill="white" stroke="none" points="-4,4 -4,-184 153.44,-184 153.44,4 -4,4"/>
<!-- GramaMolhada -->
<g id="node1" class="node"><title>GramaMolhada</title>
<ellipse fill="none" stroke="black" cx="67.594" cy="-18" rx="67.6881" ry="18"/>
<text text-anchor="middle" x="67.594" y="-14.3" font-family="Times,serif" font-size="14.00">GramaMolhada</text>
</g>
<!-- Sprinkler -->
<g id="node2" class="node"><title>Sprinkler</title>
<ellipse fill="none" stroke="black" cx="104.594" cy="-90" rx="44.6926" ry="18"/>
<text text-anchor="middle" x="104.594" y="-86.3" font-family="Times,serif" font-size="14.00">Sprinkler</text>
</g>
<!-- Sprinkler&#45;&gt;GramaMolhada -->
<g id="edge1" class="edge"><title>Sprinkler&#45;&gt;GramaMolhada</title>
<path fill="none" stroke="black" d="M95.6373,-72.055C91.3833,-64.0067 86.2021,-54.2046 81.4563,-45.2259"/>
<polygon fill="black" stroke="black" points="84.4927,-43.4807 76.7252,-36.2753 78.304,-46.7519 84.4927,-43.4807"/>
</g>
<!-- Chuva -->
<g id="node3" class="node"><title>Chuva</title>
<ellipse fill="none" stroke="black" cx="67.594" cy="-162" rx="34.394" ry="18"/>
<text text-anchor="middle" x="67.594" y="-158.3" font-family="Times,serif" font-size="14.00">Chuva</text>
</g>
<!-- Chuva&#45;&gt;GramaMolhada -->
<g id="edge2" class="edge"><title>Chuva&#45;&gt;GramaMolhada</title>
<path fill="none" stroke="black" d="M60.7044,-144.141C56.8893,-133.884 52.5357,-120.411 50.594,-108 48.1209,-92.1923 48.1209,-87.8077 50.594,-72 51.9532,-63.3122 54.4942,-54.1039 57.205,-45.843"/>
<polygon fill="black" stroke="black" points="60.5328,-46.9297 60.5279,-36.3349 53.9247,-44.6203 60.5328,-46.9297"/>
</g>
<!-- Chuva&#45;&gt;Sprinkler -->
<g id="edge3" class="edge"><title>Chuva&#45;&gt;Sprinkler</title>
<path fill="none" stroke="black" d="M76.3625,-144.411C80.6765,-136.249 85.9776,-126.22 90.8166,-117.065"/>
<polygon fill="black" stroke="black" points="94.0526,-118.433 95.6314,-107.956 87.864,-115.162 94.0526,-118.433"/>
</g>
</g>
</svg>
